<?xml version="1.0" encoding="utf-8"?>
<!-- Generator: Adobe Illustrator 28.2.0, SVG Export Plug-In . SVG Version: 6.00 Build 0)  -->
<svg version="1.1" id="Calque_1" xmlns="http://www.w3.org/2000/svg" xmlns:xlink="http://www.w3.org/1999/xlink" x="0px" y="0px"
	 viewBox="0 0 500 500" style="enable-background:new 0 0 500 500;" xml:space="preserve">
<style type="text/css">
	.st0{fill:#1062FE;}
	.st1{fill:#FFFFFF;stroke:#1062FE;stroke-miterlimit:10;}
	.st2{fill:none;stroke:#FFFFFF;stroke-width:4;stroke-miterlimit:10;}
</style>
<g transform="translate(0.000000,500.000000) scale(0.100000,-0.100000)">
	<path class="st0" d="M1075,4985c-490-77-894-430-1025-898C0,3911,0,3916,0,2500S0,1089,50,913C164,505,505,164,913,50
		C1089,0,1084,0,2500,0s1411,0,1587,50c408,114,749,455,863,863c50,176,50,171,50,1587s0,1411-50,1587c-114,408-455,749-863,863
		c-177,50-169,50-1597,49C1471,4998,1136,4995,1075,4985z"/>
</g>
<g>
	<g>
		<g>
			<path class="st1" d="M176.4,123.9c-8-3.7-17.9-5.6-30.1-5.6c-19.6,0-30.8,8.1-32.6,14.9v-13.7H84.4v120.8h29.3v-59.4
				c0-19.9,11.7-34.5,31.6-34.8c6.3,0,11.6,1.5,15.9,4.2L176.4,123.9z"/>
			<path class="st1" d="M172.2,177.9v62.3h29.6V171c0-12.4-2.4-23-7.5-31.3L172.2,177.9z"/>
		</g>
		<path class="st1" d="M280.5,165.9C280.5,165.9,280.5,165.9,280.5,165.9l-64.2,0.1c5.2-12.6,17.6-21.5,32.1-21.5
			c5.5,0,10.8,1.3,15.4,3.6l13.3-23.1c-8.6-4.6-18.4-7.2-28.8-7.2c-33.9,0-61.4,27.5-61.4,61.4c0,33.9,27.5,61.4,61.4,61.4
			c18.7,0,35.5-8.4,46.7-21.6l-17.6-20.8c-6.2,9.5-16.9,15.8-29.1,15.8c-14.5,0-26.9-8.9-32.1-21.5h64.3h27.8
			c0.9-4.3,1.5-8.7,1.5-13.3c0-15-5.4-28.7-14.3-39.3L280.5,165.9z"/>
		<path class="st1" d="M357.5,117.8c-33.9,0-61.4,27.5-61.4,61.4c0,9.5,2.2,18.4,6,26.4l24.5-42.5c5.8-11.1,17.4-18.8,30.8-18.8
			c19.2,0,34.8,15.6,34.8,34.8S376.7,214,357.5,214c-10.5,0-19.9-4.7-26.3-12.1l-13.7,23.8c10.8,9.3,24.7,14.9,40,14.9
			c33.9,0,61.4-27.5,61.4-61.4C418.9,145.3,391.4,117.8,357.5,117.8z"/>
	</g>
	<g>
		<g>
			<path class="st2" d="M168.2,260.9c3,0,9.8-0.1,9.8-0.1h5.3v-18.5h-20.2c-0.3,0-0.7,0-1,0c-14.8,0-26.9,8.7-26.9,26.2v113.6h23.9
				v-65.6h24.2v-18.6h-24.2v-27.7C159.2,263.9,162.9,260.9,168.2,260.9z"/>
			<path class="st2" d="M114.1,260.9c3,0,9.8-0.1,9.8-0.1h5.3v-18.5H109c-0.3,0-0.7,0-1,0c-14.8,0-26.9,8.7-26.9,26.2v113.6H105
				v-65.6h24.2v-18.6H105v-27.7C105,263.9,108.7,260.9,114.1,260.9z"/>
			<path class="st2" d="M392.4,320.8C392.4,320.8,392.4,320.8,392.4,320.8l-52.8,0c4.3-10.4,14.5-17.6,26.4-17.6
				c4.6,0,8.9,1.1,12.7,3l10.9-18.9c-7-3.7-15.1-5.9-23.6-5.9c-27.8,0-50.4,22.6-50.4,50.4c0,27.8,22.6,50.4,50.4,50.4
				c15.4,0,29.1-6.9,38.4-17.8L390,347.3c-5.1,7.8-13.9,13-23.9,13c-11.9,0-22.1-7.3-26.4-17.6h52.8h22.8c0.8-3.5,1.2-7.2,1.2-10.9
				c0-12.3-4.4-23.6-11.7-32.3L392.4,320.8z"/>
			<path class="st2" d="M214.4,283v99.2h-24.1V283H214.4z"/>
			<path class="st2" d="M297.5,348c-5.2,7.4-13.7,12.3-23.5,12.3c-15.8,0-28.6-12.8-28.6-28.6s12.8-28.6,28.6-28.6
				c9.7,0,18.3,4.9,23.5,12.3l14.4-17c-9.2-10.5-22.7-17.2-37.8-17.2c-27.8,0-50.4,22.6-50.4,50.4c0,27.8,22.6,50.4,50.4,50.4
				c15.1,0,28.6-6.7,37.8-17.2L297.5,348z"/>
		</g>
		<path class="st2" d="M216.5,255.7c0,7.8-5.4,13.3-13,13.3c-7.6,0-13-5.6-13-13.3s5.4-13.3,13-13.3
			C211.1,242.4,216.5,248,216.5,255.7z"/>
	</g>
</g>
</svg>
