<?xml version="1.0" encoding="utf-8"?>
<!-- Generator: Adobe Illustrator 28.2.0, SVG Export Plug-In . SVG Version: 6.00 Build 0)  -->
<svg version="1.1" id="Calque_1" xmlns="http://www.w3.org/2000/svg" xmlns:xlink="http://www.w3.org/1999/xlink" x="0px" y="0px"
	 viewBox="0 0 532 532" style="enable-background:new 0 0 532 532;" xml:space="preserve">
<style type="text/css">
	.st0{fill:#FFB6B6;}
	.st1{fill:#2F2E41;}
	.st2{fill:#428CFF;}
</style>
<circle class="st0" cx="262.9" cy="228.3" r="123.2"/>
<polygon class="st0" points="192.2,369.7 186.6,313.4 297.8,292.7 363.4,452.4 249.2,583.7 167.9,423.9 "/>
<path class="st1" d="M184.8,341.6l24.3,5.5c0,0-19.1-60.6-12.6-66.3c6.5-5.8,22.4,3.3,22.4,3.3l16.7,18.7l20.3-20.7
	c0,0,22.1-27.5,30.7-35.2c8.6-7.7-5.2-36.3-5.2-36.3s128.2-34.6,80.5-96.8c0,0-28-48.8-37.1-32.9c-9.1,15.9-20-9.3-20-9.3l-33.2,6.3
	c0,0-65.5-38.6-127.6,44S184.8,341.6,184.8,341.6L184.8,341.6z"/>
<path class="st2" d="M494.6,530.8C427.3,585.3,344,615,256.1,615c-80.2,0-156.7-24.7-220.6-70.6c0.1-1.2,0.2-2.4,0.3-3.6
	c1.7-18.5,3.2-36.6,4.2-51.5c3.9-58,139.3-96.7,139.3-96.7s0.6,0.6,1.8,1.7c7.5,6.6,37.8,30.4,91,37c47.4,5.9,63.1-22.2,67.8-35.7
	c1.4-4.1,1.9-6.9,1.9-6.9l139.3,65.8c9.1,13,12.6,40.9,13.3,72.4C494.5,528.2,494.6,529.4,494.6,530.8z"/>
</svg>
