<?xml version="1.0" encoding="UTF-8"?>
<svg id="Layer_1" data-name="Layer 1" xmlns="http://www.w3.org/2000/svg" viewBox="0 0 129.79 40.32">
  <defs>
    <style>
      .cls-1 {
        fill: #161616;
        stroke: #fff;
        stroke-miterlimit: 10;
      }
    </style>
  </defs>
  <path class="cls-1" d="M.71,33.26l6.55-5.98c2.74,3.1,5.62,4.61,8.78,4.61s5.18-1.66,5.18-3.89c0-1.94-.94-3.02-6.84-4.39-10.01-2.38-11.52-6.91-11.52-11.67C2.87,5.4,8.06.5,16.84.5c6.05,0,10.08,1.51,13.9,6.48l-7.06,5.4c-1.8-2.88-4.1-4.03-6.62-4.03-2.66,0-4.68,1.01-4.68,3.31,0,1.3.58,2.45,5.04,3.6,10.87,2.81,13.39,6.84,13.39,12.46,0,6.91-6.26,12.1-14.55,12.1-6.34,0-11.45-2.16-15.55-6.55Z"/>
  <path class="cls-1" d="M25.32,39.29l1.44-6.79c1.44.26,2.81.37,4.39.37,3.74,0,6.12-1.74,7.2-4.16l.5-1.16L24.02,1.44h11.74l7.27,15.64c.77,1.89.9,1.51,1.48,1.52.38-.09.71.62,1.69-1.52l7.27-15.64h11.52l-16.56,29.11c-3.17,5.53-7.85,9.27-16.63,9.27-1.94,0-4.54-.1-6.48-.53Z"/>
  <path class="cls-1" d="M61.15,1.44h9.58v5.47c1.94-4.18,5.69-6.34,11.45-6.34,8.06,0,14.26,5.98,14.26,15.41v22.9h-9.72v-20.52c0-6.48-3.24-9.29-8.06-9.29-4.1,0-7.78,2.81-7.78,9.29v20.52h-9.72V1.44Z"/>
  <path class="cls-1" d="M93.75,20.16c0-10.87,8.35-19.59,19.8-19.66,6.84-.07,12.38,2.59,15.55,6.98l-7.49,6.12c-1.73-2.59-4.61-4.25-7.92-4.25-6.19,0-10.22,4.97-10.22,10.8s4.25,10.8,10.44,10.8c3.74,0,6.19-1.87,8.14-4.46l7.06,6.12c-3.53,4.54-8.71,7.2-16.06,7.2-10.73,0-19.3-8.79-19.3-19.66Z"/>
</svg>